<mxfile host="app.diagrams.net" modified="2024-04-03T06:40:02.103Z" agent="Mozilla/5.0 (X11; Linux x86_64) AppleWebKit/537.36 (KHTML, like Gecko) Chrome/116.0.5845.1077 YaBrowser/23.9.1.1077 Yowser/2.5 Safari/537.36" etag="zlT3ONWu3Fneqd-_n54y" version="24.2.1" type="device">
  <diagram name="Page-1" id="2YBvvXClWsGukQMizWep">
    <mxGraphModel dx="1386" dy="806" grid="1" gridSize="10" guides="1" tooltips="1" connect="1" arrows="1" fold="1" page="1" pageScale="1" pageWidth="1169" pageHeight="827" math="0" shadow="0">
      <root>
        <mxCell id="0" />
        <mxCell id="1" parent="0" />
        <mxCell id="TDaQxXZFQYFIYzHT_-Q0-1" value="" style="swimlane;whiteSpace=wrap;startSize=23;" vertex="1" parent="1">
          <mxGeometry x="800" y="250" width="1120" height="1650" as="geometry" />
        </mxCell>
        <mxCell id="TDaQxXZFQYFIYzHT_-Q0-2" value="" style="ellipse;shape=startState;fillColor=#000000;strokeColor=#ff0000;" vertex="1" parent="TDaQxXZFQYFIYzHT_-Q0-1">
          <mxGeometry x="65" y="30" width="30" height="30" as="geometry" />
        </mxCell>
        <mxCell id="TDaQxXZFQYFIYzHT_-Q0-3" value="" style="edgeStyle=elbowEdgeStyle;elbow=horizontal;verticalAlign=bottom;endArrow=open;endSize=8;strokeColor=#FF0000;endFill=1;rounded=0;entryX=0.5;entryY=0;entryDx=0;entryDy=0;" edge="1" parent="TDaQxXZFQYFIYzHT_-Q0-1" source="TDaQxXZFQYFIYzHT_-Q0-2" target="TDaQxXZFQYFIYzHT_-Q0-4">
          <mxGeometry x="100" y="40" as="geometry">
            <mxPoint x="80" y="100" as="targetPoint" />
          </mxGeometry>
        </mxCell>
        <mxCell id="TDaQxXZFQYFIYzHT_-Q0-4" value="Input login data&lt;br&gt;(login, password)" style="rounded=1;whiteSpace=wrap;html=1;arcSize=40;fontColor=#FFFFFF;fillColor=#615F5E;strokeColor=#ff0000;" vertex="1" parent="TDaQxXZFQYFIYzHT_-Q0-1">
          <mxGeometry x="20" y="90" width="120" height="40" as="geometry" />
        </mxCell>
        <mxCell id="TDaQxXZFQYFIYzHT_-Q0-5" value="View tour details" style="rounded=1;whiteSpace=wrap;html=1;arcSize=40;fontColor=#FFFFFF;fillColor=#615F5E;strokeColor=#ff0000;" vertex="1" parent="TDaQxXZFQYFIYzHT_-Q0-1">
          <mxGeometry x="60" y="560" width="120" height="40" as="geometry" />
        </mxCell>
        <mxCell id="TDaQxXZFQYFIYzHT_-Q0-9" value="need something else" style="rounded=1;whiteSpace=wrap;html=1;arcSize=40;fontColor=#FFFFFF;fillColor=#615F5E;strokeColor=#ff0000;" vertex="1" parent="TDaQxXZFQYFIYzHT_-Q0-1">
          <mxGeometry x="10" y="840" width="120" height="40" as="geometry" />
        </mxCell>
        <mxCell id="TDaQxXZFQYFIYzHT_-Q0-11" value="all good" style="rounded=1;whiteSpace=wrap;html=1;arcSize=40;fontColor=#FFFFFF;fillColor=#615F5E;strokeColor=#ff0000;" vertex="1" parent="TDaQxXZFQYFIYzHT_-Q0-1">
          <mxGeometry x="80" y="680" width="120" height="40" as="geometry" />
        </mxCell>
        <mxCell id="TDaQxXZFQYFIYzHT_-Q0-18" value="" style="ellipse;html=1;shape=endState;fillColor=#000000;strokeColor=#ff0000;" vertex="1" parent="TDaQxXZFQYFIYzHT_-Q0-1">
          <mxGeometry x="75" y="1610" width="30" height="30" as="geometry" />
        </mxCell>
        <mxCell id="TDaQxXZFQYFIYzHT_-Q0-19" value="Logout&lt;br&gt;(exit account)" style="rounded=1;whiteSpace=wrap;html=1;arcSize=40;fontColor=#FFFFFF;fillColor=#615F5E;strokeColor=#ff0000;" vertex="1" parent="TDaQxXZFQYFIYzHT_-Q0-1">
          <mxGeometry x="30" y="1550" width="120" height="40" as="geometry" />
        </mxCell>
        <mxCell id="TDaQxXZFQYFIYzHT_-Q0-20" value="" style="html=1;align=left;verticalAlign=top;endArrow=open;endSize=8;strokeColor=#ff0000;rounded=0;exitX=0.5;exitY=1;exitDx=0;exitDy=0;entryX=0.5;entryY=0;entryDx=0;entryDy=0;" edge="1" parent="TDaQxXZFQYFIYzHT_-Q0-1" source="TDaQxXZFQYFIYzHT_-Q0-19" target="TDaQxXZFQYFIYzHT_-Q0-18">
          <mxGeometry x="-1" relative="1" as="geometry">
            <mxPoint x="60" y="1634" as="targetPoint" />
            <mxPoint x="340" y="1694" as="sourcePoint" />
            <mxPoint as="offset" />
          </mxGeometry>
        </mxCell>
        <mxCell id="TDaQxXZFQYFIYzHT_-Q0-21" value="admin" style="text;html=1;align=center;verticalAlign=middle;resizable=0;points=[];autosize=1;strokeColor=none;fillColor=none;" vertex="1" parent="TDaQxXZFQYFIYzHT_-Q0-1">
          <mxGeometry x="105" width="60" height="30" as="geometry" />
        </mxCell>
        <mxCell id="TDaQxXZFQYFIYzHT_-Q0-22" value="display" style="swimlane;whiteSpace=wrap" vertex="1" parent="1">
          <mxGeometry x="1090" y="250" width="290" height="1650" as="geometry">
            <mxRectangle x="444.5" y="128" width="90" height="30" as="alternateBounds" />
          </mxGeometry>
        </mxCell>
        <mxCell id="TDaQxXZFQYFIYzHT_-Q0-23" value="Check input data" style="rounded=1;whiteSpace=wrap;html=1;arcSize=40;fontColor=#FFFFFF;fillColor=#615F5E;strokeColor=#ff0000;" vertex="1" parent="TDaQxXZFQYFIYzHT_-Q0-22">
          <mxGeometry x="100" y="90" width="120" height="40" as="geometry" />
        </mxCell>
        <mxCell id="TDaQxXZFQYFIYzHT_-Q0-24" value="" style="rhombus;whiteSpace=wrap;html=1;fontColor=#000000;fillColor=#615F5E;strokeColor=#ff0000;" vertex="1" parent="TDaQxXZFQYFIYzHT_-Q0-22">
          <mxGeometry x="120" y="160" width="80" height="40" as="geometry" />
        </mxCell>
        <mxCell id="TDaQxXZFQYFIYzHT_-Q0-25" value="[data is correct]" style="html=1;align=left;verticalAlign=top;endArrow=open;endSize=8;strokeColor=#ff0000;rounded=0;entryX=0.5;entryY=0;entryDx=0;entryDy=0;" edge="1" parent="TDaQxXZFQYFIYzHT_-Q0-22" source="TDaQxXZFQYFIYzHT_-Q0-24" target="TDaQxXZFQYFIYzHT_-Q0-27">
          <mxGeometry x="-1" relative="1" as="geometry">
            <mxPoint x="160" y="260" as="targetPoint" />
            <mxPoint as="offset" />
          </mxGeometry>
        </mxCell>
        <mxCell id="TDaQxXZFQYFIYzHT_-Q0-26" value="" style="html=1;align=left;verticalAlign=top;endArrow=open;endSize=8;strokeColor=#ff0000;rounded=0;exitX=0.5;exitY=1;exitDx=0;exitDy=0;entryX=0.5;entryY=0;entryDx=0;entryDy=0;" edge="1" parent="TDaQxXZFQYFIYzHT_-Q0-22" source="TDaQxXZFQYFIYzHT_-Q0-23" target="TDaQxXZFQYFIYzHT_-Q0-24">
          <mxGeometry x="-1" relative="1" as="geometry">
            <mxPoint x="200" y="200" as="targetPoint" />
            <mxPoint x="200" y="140" as="sourcePoint" />
            <mxPoint as="offset" />
          </mxGeometry>
        </mxCell>
        <mxCell id="TDaQxXZFQYFIYzHT_-Q0-27" value="Authorisation" style="rounded=1;whiteSpace=wrap;html=1;arcSize=40;fontColor=#FFFFFF;fillColor=#615F5E;strokeColor=#ff0000;" vertex="1" parent="TDaQxXZFQYFIYzHT_-Q0-22">
          <mxGeometry x="100" y="250" width="120" height="40" as="geometry" />
        </mxCell>
        <mxCell id="TDaQxXZFQYFIYzHT_-Q0-31" value="show detales" style="rounded=1;whiteSpace=wrap;html=1;arcSize=40;fontColor=#FFFFFF;fillColor=#615F5E;strokeColor=#ff0000;" vertex="1" parent="TDaQxXZFQYFIYzHT_-Q0-22">
          <mxGeometry x="80" y="620" width="120" height="40" as="geometry" />
        </mxCell>
        <mxCell id="TDaQxXZFQYFIYzHT_-Q0-98" value="" style="rhombus;whiteSpace=wrap;html=1;fontColor=#000000;fillColor=#615F5E;strokeColor=#ff0000;" vertex="1" parent="TDaQxXZFQYFIYzHT_-Q0-22">
          <mxGeometry x="100" y="900" width="80" height="40" as="geometry" />
        </mxCell>
        <mxCell id="TDaQxXZFQYFIYzHT_-Q0-101" value="" style="html=1;align=left;verticalAlign=top;endArrow=open;endSize=8;strokeColor=#ff0000;rounded=0;edgeStyle=orthogonalEdgeStyle;" edge="1" parent="TDaQxXZFQYFIYzHT_-Q0-22" target="TDaQxXZFQYFIYzHT_-Q0-103">
          <mxGeometry x="-0.4286" relative="1" as="geometry">
            <mxPoint x="230" y="1050" as="targetPoint" />
            <mxPoint x="140" y="940" as="sourcePoint" />
            <mxPoint as="offset" />
            <Array as="points">
              <mxPoint x="140" y="1050" />
              <mxPoint x="145" y="1050" />
            </Array>
          </mxGeometry>
        </mxCell>
        <mxCell id="TDaQxXZFQYFIYzHT_-Q0-103" value="make something else" style="rounded=1;whiteSpace=wrap;html=1;arcSize=40;fontColor=#FFFFFF;fillColor=#615F5E;strokeColor=#ff0000;" vertex="1" parent="TDaQxXZFQYFIYzHT_-Q0-22">
          <mxGeometry x="85" y="1060" width="120" height="40" as="geometry" />
        </mxCell>
        <mxCell id="TDaQxXZFQYFIYzHT_-Q0-106" value="" style="endArrow=none;html=1;rounded=0;strokeColor=#990000;strokeWidth=8;" edge="1" parent="TDaQxXZFQYFIYzHT_-Q0-22">
          <mxGeometry width="50" height="50" relative="1" as="geometry">
            <mxPoint x="115" y="1180" as="sourcePoint" />
            <mxPoint x="180" y="1180" as="targetPoint" />
            <Array as="points">
              <mxPoint x="150" y="1180" />
            </Array>
          </mxGeometry>
        </mxCell>
        <mxCell id="TDaQxXZFQYFIYzHT_-Q0-109" value="" style="html=1;align=left;verticalAlign=top;endArrow=open;endSize=8;strokeColor=#ff0000;rounded=0;edgeStyle=orthogonalEdgeStyle;" edge="1" parent="TDaQxXZFQYFIYzHT_-Q0-22" target="TDaQxXZFQYFIYzHT_-Q0-39">
          <mxGeometry x="-0.4286" relative="1" as="geometry">
            <mxPoint x="130" y="1260" as="targetPoint" />
            <mxPoint x="130" y="1180" as="sourcePoint" />
            <mxPoint as="offset" />
            <Array as="points">
              <mxPoint x="-280" y="1180" />
              <mxPoint x="-280" y="330" />
            </Array>
          </mxGeometry>
        </mxCell>
        <mxCell id="TDaQxXZFQYFIYzHT_-Q0-108" value="" style="html=1;align=left;verticalAlign=top;endArrow=open;endSize=8;strokeColor=#ff0000;rounded=0;edgeStyle=orthogonalEdgeStyle;" edge="1" parent="TDaQxXZFQYFIYzHT_-Q0-22">
          <mxGeometry x="-0.4286" relative="1" as="geometry">
            <mxPoint x="159.5" y="1260" as="targetPoint" />
            <mxPoint x="159.5" y="1180" as="sourcePoint" />
            <mxPoint as="offset" />
            <Array as="points">
              <mxPoint x="159.5" y="1220" />
              <mxPoint x="159.5" y="1220" />
            </Array>
          </mxGeometry>
        </mxCell>
        <mxCell id="TDaQxXZFQYFIYzHT_-Q0-110" value="contact with teacher" style="rounded=1;whiteSpace=wrap;html=1;arcSize=40;fontColor=#FFFFFF;fillColor=#615F5E;strokeColor=#ff0000;" vertex="1" parent="TDaQxXZFQYFIYzHT_-Q0-22">
          <mxGeometry x="100" y="1260" width="120" height="40" as="geometry" />
        </mxCell>
        <mxCell id="TDaQxXZFQYFIYzHT_-Q0-111" value="" style="html=1;align=left;verticalAlign=top;endArrow=open;endSize=8;strokeColor=#ff0000;rounded=0;edgeStyle=orthogonalEdgeStyle;" edge="1" parent="TDaQxXZFQYFIYzHT_-Q0-22" target="TDaQxXZFQYFIYzHT_-Q0-112">
          <mxGeometry x="-0.4286" relative="1" as="geometry">
            <mxPoint x="159.5" y="1380" as="targetPoint" />
            <mxPoint x="159.5" y="1300" as="sourcePoint" />
            <mxPoint as="offset" />
            <Array as="points">
              <mxPoint x="160" y="1280" />
            </Array>
          </mxGeometry>
        </mxCell>
        <mxCell id="TDaQxXZFQYFIYzHT_-Q0-28" value="system" style="swimlane;whiteSpace=wrap" vertex="1" parent="1">
          <mxGeometry x="1370" y="250" width="280" height="1650" as="geometry" />
        </mxCell>
        <mxCell id="TDaQxXZFQYFIYzHT_-Q0-39" value="make changes" style="rounded=1;whiteSpace=wrap;html=1;arcSize=40;fontColor=#FFFFFF;fillColor=#615F5E;strokeColor=#ff0000;" vertex="1" parent="TDaQxXZFQYFIYzHT_-Q0-28">
          <mxGeometry x="-460.12" y="310" width="120" height="40" as="geometry" />
        </mxCell>
        <mxCell id="TDaQxXZFQYFIYzHT_-Q0-40" value="ask teacher about opportunity" style="rounded=1;whiteSpace=wrap;html=1;arcSize=40;fontColor=#FFFFFF;fillColor=#615F5E;strokeColor=#ff0000;" vertex="1" parent="TDaQxXZFQYFIYzHT_-Q0-28">
          <mxGeometry x="-460.12" y="397" width="120" height="40" as="geometry" />
        </mxCell>
        <mxCell id="TDaQxXZFQYFIYzHT_-Q0-41" value="Send request&lt;br&gt;for searching criterias" style="rounded=1;whiteSpace=wrap;html=1;arcSize=40;fontColor=#FFFFFF;fillColor=#615F5E;strokeColor=#ff0000;" vertex="1" parent="TDaQxXZFQYFIYzHT_-Q0-28">
          <mxGeometry x="100.25" y="350" width="120" height="40" as="geometry" />
        </mxCell>
        <mxCell id="TDaQxXZFQYFIYzHT_-Q0-43" value="" style="html=1;align=left;verticalAlign=top;endArrow=open;endSize=8;strokeColor=#ff0000;rounded=0;exitX=1;exitY=0.5;exitDx=0;exitDy=0;entryX=0.5;entryY=0;entryDx=0;entryDy=0;edgeStyle=orthogonalEdgeStyle;" edge="1" parent="TDaQxXZFQYFIYzHT_-Q0-28" source="TDaQxXZFQYFIYzHT_-Q0-39" target="TDaQxXZFQYFIYzHT_-Q0-41">
          <mxGeometry x="-0.4286" relative="1" as="geometry">
            <mxPoint x="43.184999999999604" y="328.7950000000001" as="targetPoint" />
            <mxPoint x="49.870000000000005" y="397" as="sourcePoint" />
            <mxPoint as="offset" />
          </mxGeometry>
        </mxCell>
        <mxCell id="TDaQxXZFQYFIYzHT_-Q0-44" value="" style="html=1;align=left;verticalAlign=top;endArrow=open;endSize=8;strokeColor=#ff0000;rounded=0;exitX=0.5;exitY=1;exitDx=0;exitDy=0;edgeStyle=orthogonalEdgeStyle;entryX=1;entryY=0.5;entryDx=0;entryDy=0;" edge="1" parent="TDaQxXZFQYFIYzHT_-Q0-28" source="TDaQxXZFQYFIYzHT_-Q0-41" target="TDaQxXZFQYFIYzHT_-Q0-40">
          <mxGeometry x="-0.4286" relative="1" as="geometry">
            <mxPoint x="-199.87" y="480" as="targetPoint" />
            <mxPoint x="70.13" y="447" as="sourcePoint" />
            <mxPoint as="offset" />
            <Array as="points">
              <mxPoint x="190.13" y="417" />
            </Array>
          </mxGeometry>
        </mxCell>
        <mxCell id="TDaQxXZFQYFIYzHT_-Q0-30" value="make distribution" style="rounded=1;whiteSpace=wrap;html=1;arcSize=40;fontColor=#FFFFFF;fillColor=#615F5E;strokeColor=#ff0000;" vertex="1" parent="TDaQxXZFQYFIYzHT_-Q0-28">
          <mxGeometry x="80" y="550" width="120" height="40" as="geometry" />
        </mxCell>
        <mxCell id="TDaQxXZFQYFIYzHT_-Q0-89" value="" style="rhombus;whiteSpace=wrap;html=1;fontColor=#000000;fillColor=#615F5E;strokeColor=#ff0000;" vertex="1" parent="TDaQxXZFQYFIYzHT_-Q0-28">
          <mxGeometry x="90" y="740" width="80" height="40" as="geometry" />
        </mxCell>
        <mxCell id="TDaQxXZFQYFIYzHT_-Q0-90" value="" style="html=1;align=left;verticalAlign=top;endArrow=open;endSize=8;strokeColor=#ff0000;rounded=0;edgeStyle=orthogonalEdgeStyle;" edge="1" parent="TDaQxXZFQYFIYzHT_-Q0-28" source="TDaQxXZFQYFIYzHT_-Q0-91" target="TDaQxXZFQYFIYzHT_-Q0-40">
          <mxGeometry x="-0.4286" relative="1" as="geometry">
            <mxPoint x="129.75" y="830" as="targetPoint" />
            <mxPoint x="-370.25" y="800" as="sourcePoint" />
            <mxPoint as="offset" />
            <Array as="points" />
          </mxGeometry>
        </mxCell>
        <mxCell id="TDaQxXZFQYFIYzHT_-Q0-91" value="[no]" style="text;html=1;align=center;verticalAlign=middle;resizable=0;points=[];autosize=1;strokeColor=none;fillColor=none;" vertex="1" parent="TDaQxXZFQYFIYzHT_-Q0-28">
          <mxGeometry x="60" y="740" width="40" height="30" as="geometry" />
        </mxCell>
        <mxCell id="TDaQxXZFQYFIYzHT_-Q0-94" value="[yes]" style="text;html=1;align=center;verticalAlign=middle;resizable=0;points=[];autosize=1;strokeColor=none;fillColor=none;" vertex="1" parent="TDaQxXZFQYFIYzHT_-Q0-28">
          <mxGeometry x="120" y="780" width="50" height="30" as="geometry" />
        </mxCell>
        <mxCell id="TDaQxXZFQYFIYzHT_-Q0-96" value="save changes" style="rounded=1;whiteSpace=wrap;html=1;arcSize=40;fontColor=#FFFFFF;fillColor=#615F5E;strokeColor=#ff0000;" vertex="1" parent="TDaQxXZFQYFIYzHT_-Q0-28">
          <mxGeometry x="90" y="1460" width="120" height="40" as="geometry" />
        </mxCell>
        <mxCell id="TDaQxXZFQYFIYzHT_-Q0-107" value="" style="html=1;align=left;verticalAlign=top;endArrow=open;endSize=8;strokeColor=#ff0000;rounded=0;edgeStyle=orthogonalEdgeStyle;" edge="1" parent="TDaQxXZFQYFIYzHT_-Q0-28" source="TDaQxXZFQYFIYzHT_-Q0-103">
          <mxGeometry x="-0.4286" relative="1" as="geometry">
            <mxPoint x="-130" y="1180" as="targetPoint" />
            <mxPoint x="100" y="991" as="sourcePoint" />
            <mxPoint as="offset" />
            <Array as="points">
              <mxPoint x="-130" y="1140" />
              <mxPoint x="-130" y="1140" />
            </Array>
          </mxGeometry>
        </mxCell>
        <mxCell id="TDaQxXZFQYFIYzHT_-Q0-113" value="final canges" style="rounded=1;whiteSpace=wrap;html=1;arcSize=40;fontColor=#FFFFFF;fillColor=#615F5E;strokeColor=#ff0000;" vertex="1" parent="TDaQxXZFQYFIYzHT_-Q0-28">
          <mxGeometry x="85" y="1364" width="120" height="40" as="geometry" />
        </mxCell>
        <mxCell id="TDaQxXZFQYFIYzHT_-Q0-114" value="" style="html=1;align=left;verticalAlign=top;endArrow=open;endSize=8;strokeColor=#ff0000;rounded=0;edgeStyle=orthogonalEdgeStyle;entryX=0.5;entryY=0;entryDx=0;entryDy=0;" edge="1" parent="TDaQxXZFQYFIYzHT_-Q0-28" source="TDaQxXZFQYFIYzHT_-Q0-113" target="TDaQxXZFQYFIYzHT_-Q0-96">
          <mxGeometry x="-0.4286" relative="1" as="geometry">
            <mxPoint x="160" y="1470" as="targetPoint" />
            <mxPoint x="149.5" y="1400" as="sourcePoint" />
            <mxPoint as="offset" />
            <Array as="points" />
          </mxGeometry>
        </mxCell>
        <mxCell id="TDaQxXZFQYFIYzHT_-Q0-49" value="teacher" style="swimlane;whiteSpace=wrap" vertex="1" parent="1">
          <mxGeometry x="1650" y="250" width="280" height="1650" as="geometry" />
        </mxCell>
        <mxCell id="TDaQxXZFQYFIYzHT_-Q0-42" value="" style="rhombus;whiteSpace=wrap;html=1;fontColor=#000000;fillColor=#615F5E;strokeColor=#ff0000;" vertex="1" parent="TDaQxXZFQYFIYzHT_-Q0-49">
          <mxGeometry x="104" y="437" width="80" height="40" as="geometry" />
        </mxCell>
        <mxCell id="TDaQxXZFQYFIYzHT_-Q0-112" value="ask or answer" style="rounded=1;whiteSpace=wrap;html=1;arcSize=40;fontColor=#FFFFFF;fillColor=#615F5E;strokeColor=#ff0000;" vertex="1" parent="TDaQxXZFQYFIYzHT_-Q0-49">
          <mxGeometry x="80" y="1260" width="120" height="40" as="geometry" />
        </mxCell>
        <mxCell id="TDaQxXZFQYFIYzHT_-Q0-115" value="" style="html=1;align=left;verticalAlign=top;endArrow=open;endSize=8;strokeColor=#ff0000;rounded=0;edgeStyle=orthogonalEdgeStyle;" edge="1" parent="TDaQxXZFQYFIYzHT_-Q0-49" target="TDaQxXZFQYFIYzHT_-Q0-113">
          <mxGeometry x="-0.4286" relative="1" as="geometry">
            <mxPoint x="139.5" y="1380" as="targetPoint" />
            <mxPoint x="139.5" y="1300" as="sourcePoint" />
            <mxPoint as="offset" />
            <Array as="points">
              <mxPoint x="140" y="1384" />
            </Array>
          </mxGeometry>
        </mxCell>
        <mxCell id="TDaQxXZFQYFIYzHT_-Q0-68" value="" style="html=1;verticalAlign=bottom;endArrow=open;endSize=8;strokeColor=#ff0000;rounded=0;exitX=1;exitY=0.5;exitDx=0;exitDy=0;edgeStyle=orthogonalEdgeStyle;entryX=0;entryY=0.5;entryDx=0;entryDy=0;" edge="1" parent="1" source="TDaQxXZFQYFIYzHT_-Q0-4" target="TDaQxXZFQYFIYzHT_-Q0-23">
          <mxGeometry relative="1" as="geometry">
            <mxPoint x="1160" y="420" as="targetPoint" />
            <mxPoint x="1050" y="390" as="sourcePoint" />
            <Array as="points">
              <mxPoint x="1160" y="360" />
              <mxPoint x="1160" y="360" />
            </Array>
          </mxGeometry>
        </mxCell>
        <mxCell id="TDaQxXZFQYFIYzHT_-Q0-69" value="[data is incorrect]" style="html=1;align=left;verticalAlign=bottom;endArrow=open;endSize=8;strokeColor=#ff0000;rounded=0;exitX=0;exitY=0.5;exitDx=0;exitDy=0;edgeStyle=orthogonalEdgeStyle;entryX=0.75;entryY=1;entryDx=0;entryDy=0;" edge="1" parent="1" source="TDaQxXZFQYFIYzHT_-Q0-24" target="TDaQxXZFQYFIYzHT_-Q0-4">
          <mxGeometry x="-0.2726" relative="1" as="geometry">
            <mxPoint x="1070" y="490" as="targetPoint" />
            <mxPoint x="1119.9999999999998" y="530.0000000000001" as="sourcePoint" />
            <Array as="points">
              <mxPoint x="1210" y="460" />
              <mxPoint x="1070" y="460" />
              <mxPoint x="1070" y="420" />
              <mxPoint x="920" y="420" />
            </Array>
            <mxPoint as="offset" />
          </mxGeometry>
        </mxCell>
        <mxCell id="TDaQxXZFQYFIYzHT_-Q0-70" value="" style="html=1;align=left;verticalAlign=top;endArrow=open;endSize=8;strokeColor=#ff0000;rounded=0;exitX=0;exitY=0.5;exitDx=0;exitDy=0;edgeStyle=orthogonalEdgeStyle;entryX=0.5;entryY=0;entryDx=0;entryDy=0;" edge="1" parent="1" source="TDaQxXZFQYFIYzHT_-Q0-27" target="TDaQxXZFQYFIYzHT_-Q0-39">
          <mxGeometry x="-0.4286" relative="1" as="geometry">
            <mxPoint x="1430" y="680" as="targetPoint" />
            <mxPoint x="1229.66" y="620" as="sourcePoint" />
            <mxPoint as="offset" />
          </mxGeometry>
        </mxCell>
        <mxCell id="TDaQxXZFQYFIYzHT_-Q0-71" value="" style="html=1;align=left;verticalAlign=top;endArrow=open;endSize=8;strokeColor=#ff0000;rounded=0;exitX=0;exitY=0.5;exitDx=0;exitDy=0;edgeStyle=orthogonalEdgeStyle;entryX=1;entryY=0.25;entryDx=0;entryDy=0;" edge="1" parent="1" source="TDaQxXZFQYFIYzHT_-Q0-30" target="TDaQxXZFQYFIYzHT_-Q0-5">
          <mxGeometry x="-0.4286" relative="1" as="geometry">
            <mxPoint x="1170" y="983" as="targetPoint" />
            <mxPoint x="1440" y="950" as="sourcePoint" />
            <mxPoint as="offset" />
            <Array as="points">
              <mxPoint x="1460" y="820" />
            </Array>
          </mxGeometry>
        </mxCell>
        <mxCell id="TDaQxXZFQYFIYzHT_-Q0-72" value="" style="html=1;align=left;verticalAlign=top;endArrow=open;endSize=8;strokeColor=#ff0000;rounded=0;edgeStyle=orthogonalEdgeStyle;exitX=1;exitY=0.75;exitDx=0;exitDy=0;entryX=0;entryY=0.5;entryDx=0;entryDy=0;" edge="1" parent="1" source="TDaQxXZFQYFIYzHT_-Q0-5" target="TDaQxXZFQYFIYzHT_-Q0-31">
          <mxGeometry x="-0.4286" relative="1" as="geometry">
            <mxPoint x="1460" y="960" as="targetPoint" />
            <mxPoint x="1330" y="1080" as="sourcePoint" />
            <mxPoint as="offset" />
            <Array as="points">
              <mxPoint x="970" y="870" />
              <mxPoint x="1450" y="870" />
            </Array>
          </mxGeometry>
        </mxCell>
        <mxCell id="TDaQxXZFQYFIYzHT_-Q0-73" value="" style="html=1;align=left;verticalAlign=top;endArrow=open;endSize=8;strokeColor=#ff0000;rounded=0;exitX=0.5;exitY=1;exitDx=0;exitDy=0;edgeStyle=orthogonalEdgeStyle;entryX=1;entryY=0.25;entryDx=0;entryDy=0;" edge="1" parent="1" source="TDaQxXZFQYFIYzHT_-Q0-31" target="TDaQxXZFQYFIYzHT_-Q0-11">
          <mxGeometry x="-0.4286" relative="1" as="geometry">
            <mxPoint x="940" y="1010" as="targetPoint" />
            <mxPoint x="1420" y="1010" as="sourcePoint" />
            <mxPoint as="offset" />
            <Array as="points">
              <mxPoint x="1240" y="910" />
              <mxPoint x="1240" y="940" />
            </Array>
          </mxGeometry>
        </mxCell>
        <mxCell id="TDaQxXZFQYFIYzHT_-Q0-46" value="[no]" style="html=1;align=left;verticalAlign=top;endArrow=open;endSize=8;strokeColor=#ff0000;rounded=0;exitX=0;exitY=0.5;exitDx=0;exitDy=0;entryX=0.5;entryY=1;entryDx=0;entryDy=0;edgeStyle=orthogonalEdgeStyle;" edge="1" parent="1" source="TDaQxXZFQYFIYzHT_-Q0-42" target="TDaQxXZFQYFIYzHT_-Q0-40">
          <mxGeometry x="-0.5638" relative="1" as="geometry">
            <mxPoint x="1400.13" y="727" as="targetPoint" />
            <mxPoint x="1420.13" y="737" as="sourcePoint" />
            <mxPoint as="offset" />
            <Array as="points">
              <mxPoint x="970" y="707" />
            </Array>
          </mxGeometry>
        </mxCell>
        <mxCell id="TDaQxXZFQYFIYzHT_-Q0-45" value="" style="html=1;align=left;verticalAlign=top;endArrow=open;endSize=8;strokeColor=#ff0000;rounded=0;exitX=1;exitY=0.75;exitDx=0;exitDy=0;edgeStyle=orthogonalEdgeStyle;entryX=0.5;entryY=0;entryDx=0;entryDy=0;" edge="1" parent="1" source="TDaQxXZFQYFIYzHT_-Q0-40" target="TDaQxXZFQYFIYzHT_-Q0-42">
          <mxGeometry x="-0.4286" relative="1" as="geometry">
            <mxPoint x="920.13" y="780.5" as="targetPoint" />
            <mxPoint x="1450.13" y="753.5" as="sourcePoint" />
            <mxPoint as="offset" />
            <Array as="points">
              <mxPoint x="1070.13" y="677" />
              <mxPoint x="1070.13" y="687" />
              <mxPoint x="1520.13" y="687" />
            </Array>
          </mxGeometry>
        </mxCell>
        <mxCell id="TDaQxXZFQYFIYzHT_-Q0-29" value="[yes]" style="html=1;align=left;verticalAlign=top;endArrow=open;endSize=8;strokeColor=#ff0000;rounded=0;exitX=0.5;exitY=1;exitDx=0;exitDy=0;entryX=0.5;entryY=0;entryDx=0;entryDy=0;" edge="1" parent="1" source="TDaQxXZFQYFIYzHT_-Q0-42" target="TDaQxXZFQYFIYzHT_-Q0-30">
          <mxGeometry x="-1" relative="1" as="geometry">
            <mxPoint x="1510" y="870" as="targetPoint" />
            <mxPoint x="1509.66" y="850" as="sourcePoint" />
            <mxPoint as="offset" />
            <Array as="points">
              <mxPoint x="1794" y="800" />
            </Array>
          </mxGeometry>
        </mxCell>
        <mxCell id="TDaQxXZFQYFIYzHT_-Q0-14" value="" style="html=1;align=left;verticalAlign=top;endArrow=open;endSize=8;strokeColor=#ff0000;rounded=0;edgeStyle=orthogonalEdgeStyle;exitX=1;exitY=0.75;exitDx=0;exitDy=0;" edge="1" parent="1" source="TDaQxXZFQYFIYzHT_-Q0-11" target="TDaQxXZFQYFIYzHT_-Q0-89">
          <mxGeometry x="-0.4286" relative="1" as="geometry">
            <mxPoint x="1400.4249999999997" y="986.5664999999999" as="targetPoint" />
            <mxPoint x="1040" y="1050" as="sourcePoint" />
            <mxPoint as="offset" />
            <Array as="points">
              <mxPoint x="1500" y="960" />
            </Array>
          </mxGeometry>
        </mxCell>
        <mxCell id="TDaQxXZFQYFIYzHT_-Q0-93" value="" style="html=1;align=left;verticalAlign=top;endArrow=open;endSize=8;strokeColor=#ff0000;rounded=0;edgeStyle=orthogonalEdgeStyle;exitX=0.5;exitY=1;exitDx=0;exitDy=0;entryX=1;entryY=0.75;entryDx=0;entryDy=0;" edge="1" parent="1" source="TDaQxXZFQYFIYzHT_-Q0-89" target="TDaQxXZFQYFIYzHT_-Q0-9">
          <mxGeometry x="-0.4286" relative="1" as="geometry">
            <mxPoint x="1580" y="1170" as="targetPoint" />
            <mxPoint x="1080" y="1140" as="sourcePoint" />
            <mxPoint as="offset" />
            <Array as="points" />
          </mxGeometry>
        </mxCell>
        <mxCell id="TDaQxXZFQYFIYzHT_-Q0-95" value="" style="html=1;align=left;verticalAlign=top;endArrow=open;endSize=8;strokeColor=#ff0000;rounded=0;edgeStyle=orthogonalEdgeStyle;" edge="1" parent="1" source="TDaQxXZFQYFIYzHT_-Q0-98" target="TDaQxXZFQYFIYzHT_-Q0-96">
          <mxGeometry x="-0.4286" relative="1" as="geometry">
            <mxPoint x="1400" y="1220" as="targetPoint" />
            <mxPoint x="900" y="1190" as="sourcePoint" />
            <mxPoint as="offset" />
            <Array as="points">
              <mxPoint x="870" y="1170" />
              <mxPoint x="870" y="1730" />
            </Array>
          </mxGeometry>
        </mxCell>
        <mxCell id="TDaQxXZFQYFIYzHT_-Q0-97" value="" style="html=1;align=left;verticalAlign=top;endArrow=open;endSize=8;strokeColor=#ff0000;rounded=0;edgeStyle=orthogonalEdgeStyle;exitX=0.5;exitY=1;exitDx=0;exitDy=0;" edge="1" parent="1" source="TDaQxXZFQYFIYzHT_-Q0-96" target="TDaQxXZFQYFIYzHT_-Q0-19">
          <mxGeometry x="-0.4286" relative="1" as="geometry">
            <mxPoint x="1470" y="1740" as="targetPoint" />
            <mxPoint x="880" y="1140" as="sourcePoint" />
            <mxPoint as="offset" />
            <Array as="points">
              <mxPoint x="1520" y="1780" />
              <mxPoint x="890" y="1780" />
            </Array>
          </mxGeometry>
        </mxCell>
        <mxCell id="TDaQxXZFQYFIYzHT_-Q0-99" value="[no]" style="text;html=1;align=center;verticalAlign=middle;resizable=0;points=[];autosize=1;strokeColor=none;fillColor=none;" vertex="1" parent="1">
          <mxGeometry x="1150" y="1148" width="40" height="30" as="geometry" />
        </mxCell>
        <mxCell id="TDaQxXZFQYFIYzHT_-Q0-100" value="" style="html=1;align=left;verticalAlign=top;endArrow=open;endSize=8;strokeColor=#ff0000;rounded=0;edgeStyle=orthogonalEdgeStyle;" edge="1" parent="1" source="TDaQxXZFQYFIYzHT_-Q0-9" target="TDaQxXZFQYFIYzHT_-Q0-98">
          <mxGeometry x="-0.4286" relative="1" as="geometry">
            <mxPoint x="1010" y="950" as="targetPoint" />
            <mxPoint x="1240" y="920" as="sourcePoint" />
            <mxPoint as="offset" />
            <Array as="points">
              <mxPoint x="870" y="1150" />
            </Array>
          </mxGeometry>
        </mxCell>
        <mxCell id="TDaQxXZFQYFIYzHT_-Q0-102" value="[yes]" style="text;html=1;align=center;verticalAlign=middle;resizable=0;points=[];autosize=1;strokeColor=none;fillColor=none;" vertex="1" parent="1">
          <mxGeometry x="1235" y="1178" width="50" height="30" as="geometry" />
        </mxCell>
      </root>
    </mxGraphModel>
  </diagram>
</mxfile>
